<mxfile host="app.diagrams.net" modified="2023-05-24T14:24:55.074Z" agent="Mozilla/5.0 (Windows NT 10.0; Win64; x64) AppleWebKit/537.36 (KHTML, like Gecko) Chrome/113.0.0.0 Safari/537.36 Edg/113.0.1774.50" etag="J8E7p1-SuWT57h85vJSx" version="21.3.2" type="github">
  <diagram name="第 1 页" id="zuVdLbNnITDPpEh9HB5L">
    <mxGraphModel dx="2707" dy="1016" grid="1" gridSize="10" guides="1" tooltips="1" connect="1" arrows="1" fold="1" page="1" pageScale="1" pageWidth="1900" pageHeight="1000" math="0" shadow="0">
      <root>
        <mxCell id="0" />
        <mxCell id="1" parent="0" />
        <mxCell id="yWywlQkEj96IS5xHu7GC-1" value="" style="endArrow=classic;html=1;rounded=0;" edge="1" parent="1">
          <mxGeometry width="50" height="50" relative="1" as="geometry">
            <mxPoint x="160" y="320" as="sourcePoint" />
            <mxPoint x="160" y="40" as="targetPoint" />
          </mxGeometry>
        </mxCell>
        <mxCell id="yWywlQkEj96IS5xHu7GC-2" value="" style="endArrow=classic;html=1;rounded=0;" edge="1" parent="1">
          <mxGeometry width="50" height="50" relative="1" as="geometry">
            <mxPoint x="160" y="320" as="sourcePoint" />
            <mxPoint x="520" y="320" as="targetPoint" />
          </mxGeometry>
        </mxCell>
        <mxCell id="yWywlQkEj96IS5xHu7GC-4" value="" style="endArrow=none;html=1;curved=1;" edge="1" parent="1">
          <mxGeometry width="50" height="50" relative="1" as="geometry">
            <mxPoint x="160" y="320" as="sourcePoint" />
            <mxPoint x="240" y="60" as="targetPoint" />
            <Array as="points">
              <mxPoint x="230" y="190" />
            </Array>
          </mxGeometry>
        </mxCell>
        <mxCell id="yWywlQkEj96IS5xHu7GC-5" value="" style="endArrow=none;html=1;curved=1;" edge="1" parent="1">
          <mxGeometry width="50" height="50" relative="1" as="geometry">
            <mxPoint x="160" y="320" as="sourcePoint" />
            <mxPoint x="330" y="80" as="targetPoint" />
            <Array as="points">
              <mxPoint x="280" y="220" />
            </Array>
          </mxGeometry>
        </mxCell>
        <mxCell id="yWywlQkEj96IS5xHu7GC-6" value="" style="endArrow=none;html=1;curved=1;" edge="1" parent="1">
          <mxGeometry width="50" height="50" relative="1" as="geometry">
            <mxPoint x="160" y="320" as="sourcePoint" />
            <mxPoint x="400" y="120" as="targetPoint" />
            <Array as="points">
              <mxPoint x="310" y="270" />
            </Array>
          </mxGeometry>
        </mxCell>
        <mxCell id="yWywlQkEj96IS5xHu7GC-7" value="" style="endArrow=none;html=1;curved=1;" edge="1" parent="1">
          <mxGeometry width="50" height="50" relative="1" as="geometry">
            <mxPoint x="160" y="320" as="sourcePoint" />
            <mxPoint x="450" y="180" as="targetPoint" />
            <Array as="points">
              <mxPoint x="330" y="310" />
            </Array>
          </mxGeometry>
        </mxCell>
        <mxCell id="yWywlQkEj96IS5xHu7GC-8" value="" style="endArrow=classic;html=1;rounded=0;" edge="1" parent="1">
          <mxGeometry width="50" height="50" relative="1" as="geometry">
            <mxPoint x="160" y="800" as="sourcePoint" />
            <mxPoint x="520" y="800" as="targetPoint" />
          </mxGeometry>
        </mxCell>
        <mxCell id="yWywlQkEj96IS5xHu7GC-9" value="" style="endArrow=classic;html=1;rounded=0;" edge="1" parent="1">
          <mxGeometry width="50" height="50" relative="1" as="geometry">
            <mxPoint x="160" y="800" as="sourcePoint" />
            <mxPoint x="160" y="560" as="targetPoint" />
          </mxGeometry>
        </mxCell>
        <mxCell id="yWywlQkEj96IS5xHu7GC-10" value="" style="endArrow=none;html=1;rounded=0;strokeWidth=2;fillColor=#dae8fc;strokeColor=#6c8ebf;" edge="1" parent="1">
          <mxGeometry width="50" height="50" relative="1" as="geometry">
            <mxPoint x="160" y="800" as="sourcePoint" />
            <mxPoint x="190" y="800" as="targetPoint" />
          </mxGeometry>
        </mxCell>
        <mxCell id="yWywlQkEj96IS5xHu7GC-16" value="" style="endArrow=none;html=1;strokeWidth=2;fillColor=#d5e8d4;strokeColor=#82b366;curved=1;" edge="1" parent="1">
          <mxGeometry width="50" height="50" relative="1" as="geometry">
            <mxPoint x="160" y="800" as="sourcePoint" />
            <mxPoint x="280" y="600" as="targetPoint" />
            <Array as="points">
              <mxPoint x="190" y="620" />
            </Array>
          </mxGeometry>
        </mxCell>
        <mxCell id="yWywlQkEj96IS5xHu7GC-18" value="" style="endArrow=none;html=1;curved=1;strokeWidth=2;fillColor=#d5e8d4;strokeColor=#82b366;" edge="1" parent="1">
          <mxGeometry width="50" height="50" relative="1" as="geometry">
            <mxPoint x="280" y="600" as="sourcePoint" />
            <mxPoint x="500" y="790" as="targetPoint" />
            <Array as="points">
              <mxPoint x="360" y="780" />
            </Array>
          </mxGeometry>
        </mxCell>
        <mxCell id="yWywlQkEj96IS5xHu7GC-19" value="" style="endArrow=none;html=1;strokeWidth=2;fillColor=#dae8fc;strokeColor=#6c8ebf;curved=1;" edge="1" parent="1">
          <mxGeometry width="50" height="50" relative="1" as="geometry">
            <mxPoint x="360" y="600" as="sourcePoint" />
            <mxPoint x="190" y="800" as="targetPoint" />
            <Array as="points">
              <mxPoint x="310" y="600" />
              <mxPoint x="260" y="630" />
              <mxPoint x="210" y="700" />
            </Array>
          </mxGeometry>
        </mxCell>
        <mxCell id="yWywlQkEj96IS5xHu7GC-20" value="" style="endArrow=none;html=1;rounded=0;strokeWidth=2;fillColor=#dae8fc;strokeColor=#6c8ebf;" edge="1" parent="1">
          <mxGeometry width="50" height="50" relative="1" as="geometry">
            <mxPoint x="360" y="600" as="sourcePoint" />
            <mxPoint x="480" y="600" as="targetPoint" />
          </mxGeometry>
        </mxCell>
        <mxCell id="yWywlQkEj96IS5xHu7GC-21" value="" style="endArrow=none;html=1;rounded=0;strokeWidth=2;fillColor=#f8cecc;strokeColor=#b85450;" edge="1" parent="1">
          <mxGeometry width="50" height="50" relative="1" as="geometry">
            <mxPoint x="160" y="600" as="sourcePoint" />
            <mxPoint x="190" y="600" as="targetPoint" />
          </mxGeometry>
        </mxCell>
        <mxCell id="yWywlQkEj96IS5xHu7GC-22" value="" style="endArrow=none;html=1;strokeWidth=2;fillColor=#f8cecc;strokeColor=#b85450;curved=1;" edge="1" parent="1">
          <mxGeometry width="50" height="50" relative="1" as="geometry">
            <mxPoint x="480" y="790" as="sourcePoint" />
            <mxPoint x="190" y="600" as="targetPoint" />
            <Array as="points">
              <mxPoint x="370" y="780" />
              <mxPoint x="250" y="710" />
              <mxPoint x="210" y="650" />
            </Array>
          </mxGeometry>
        </mxCell>
        <mxCell id="yWywlQkEj96IS5xHu7GC-26" style="rounded=0;orthogonalLoop=1;jettySize=auto;html=1;exitX=1;exitY=1;exitDx=0;exitDy=0;entryX=0;entryY=0;entryDx=0;entryDy=0;" edge="1" parent="1" source="yWywlQkEj96IS5xHu7GC-23" target="yWywlQkEj96IS5xHu7GC-25">
          <mxGeometry relative="1" as="geometry" />
        </mxCell>
        <mxCell id="yWywlQkEj96IS5xHu7GC-27" style="rounded=0;orthogonalLoop=1;jettySize=auto;html=1;exitX=0;exitY=1;exitDx=0;exitDy=0;entryX=1;entryY=0;entryDx=0;entryDy=0;" edge="1" parent="1" source="yWywlQkEj96IS5xHu7GC-23" target="yWywlQkEj96IS5xHu7GC-24">
          <mxGeometry relative="1" as="geometry" />
        </mxCell>
        <mxCell id="yWywlQkEj96IS5xHu7GC-23" value="" style="ellipse;whiteSpace=wrap;html=1;aspect=fixed;fillColor=none;" vertex="1" parent="1">
          <mxGeometry x="840" y="80" width="80" height="80" as="geometry" />
        </mxCell>
        <mxCell id="yWywlQkEj96IS5xHu7GC-28" style="edgeStyle=orthogonalEdgeStyle;rounded=0;orthogonalLoop=1;jettySize=auto;html=1;exitX=1;exitY=0.5;exitDx=0;exitDy=0;entryX=0;entryY=0.5;entryDx=0;entryDy=0;" edge="1" parent="1" source="yWywlQkEj96IS5xHu7GC-24" target="yWywlQkEj96IS5xHu7GC-25">
          <mxGeometry relative="1" as="geometry" />
        </mxCell>
        <mxCell id="yWywlQkEj96IS5xHu7GC-24" value="" style="ellipse;whiteSpace=wrap;html=1;aspect=fixed;fillColor=none;" vertex="1" parent="1">
          <mxGeometry x="720" y="240" width="80" height="80" as="geometry" />
        </mxCell>
        <mxCell id="yWywlQkEj96IS5xHu7GC-29" style="edgeStyle=orthogonalEdgeStyle;rounded=0;orthogonalLoop=1;jettySize=auto;html=1;exitX=0;exitY=0.5;exitDx=0;exitDy=0;" edge="1" parent="1" source="yWywlQkEj96IS5xHu7GC-25" target="yWywlQkEj96IS5xHu7GC-24">
          <mxGeometry relative="1" as="geometry" />
        </mxCell>
        <mxCell id="yWywlQkEj96IS5xHu7GC-25" value="" style="ellipse;whiteSpace=wrap;html=1;aspect=fixed;fillColor=none;" vertex="1" parent="1">
          <mxGeometry x="960" y="240" width="80" height="80" as="geometry" />
        </mxCell>
        <mxCell id="yWywlQkEj96IS5xHu7GC-30" value="&lt;font style=&quot;font-size: 24px;&quot;&gt;X&lt;/font&gt;" style="text;html=1;strokeColor=none;fillColor=none;align=center;verticalAlign=middle;whiteSpace=wrap;rounded=0;" vertex="1" parent="1">
          <mxGeometry x="850" y="105" width="60" height="30" as="geometry" />
        </mxCell>
        <mxCell id="yWywlQkEj96IS5xHu7GC-32" value="&lt;font style=&quot;font-size: 24px;&quot;&gt;Y&lt;sub&gt;1&lt;/sub&gt;&lt;/font&gt;" style="text;html=1;strokeColor=none;fillColor=none;align=center;verticalAlign=middle;whiteSpace=wrap;rounded=0;" vertex="1" parent="1">
          <mxGeometry x="730" y="265" width="60" height="30" as="geometry" />
        </mxCell>
        <mxCell id="yWywlQkEj96IS5xHu7GC-33" value="&lt;font style=&quot;font-size: 24px;&quot;&gt;Y&lt;sub&gt;2&lt;/sub&gt;&lt;/font&gt;" style="text;html=1;strokeColor=none;fillColor=none;align=center;verticalAlign=middle;whiteSpace=wrap;rounded=0;" vertex="1" parent="1">
          <mxGeometry x="970" y="265" width="60" height="30" as="geometry" />
        </mxCell>
        <mxCell id="yWywlQkEj96IS5xHu7GC-34" value="" style="endArrow=classic;html=1;rounded=0;" edge="1" parent="1">
          <mxGeometry width="50" height="50" relative="1" as="geometry">
            <mxPoint x="760" y="800" as="sourcePoint" />
            <mxPoint x="1120" y="800" as="targetPoint" />
          </mxGeometry>
        </mxCell>
        <mxCell id="yWywlQkEj96IS5xHu7GC-35" value="" style="endArrow=classic;html=1;rounded=0;" edge="1" parent="1">
          <mxGeometry width="50" height="50" relative="1" as="geometry">
            <mxPoint x="760" y="800" as="sourcePoint" />
            <mxPoint x="760" y="560" as="targetPoint" />
          </mxGeometry>
        </mxCell>
        <mxCell id="yWywlQkEj96IS5xHu7GC-37" value="" style="endArrow=none;html=1;fillColor=#f8cecc;strokeColor=#b85450;strokeWidth=2;curved=1;" edge="1" parent="1">
          <mxGeometry width="50" height="50" relative="1" as="geometry">
            <mxPoint x="760" y="800" as="sourcePoint" />
            <mxPoint x="880" y="600" as="targetPoint" />
            <Array as="points">
              <mxPoint x="790" y="630" />
            </Array>
          </mxGeometry>
        </mxCell>
        <mxCell id="yWywlQkEj96IS5xHu7GC-38" value="" style="endArrow=none;html=1;fillColor=#f8cecc;strokeColor=#b85450;strokeWidth=2;curved=1;" edge="1" parent="1">
          <mxGeometry width="50" height="50" relative="1" as="geometry">
            <mxPoint x="1080" y="790" as="sourcePoint" />
            <mxPoint x="880" y="600" as="targetPoint" />
            <Array as="points">
              <mxPoint x="900" y="760" />
            </Array>
          </mxGeometry>
        </mxCell>
        <mxCell id="yWywlQkEj96IS5xHu7GC-39" value="" style="endArrow=none;html=1;rounded=0;strokeWidth=2;fillColor=#d5e8d4;strokeColor=#82b366;" edge="1" parent="1">
          <mxGeometry width="50" height="50" relative="1" as="geometry">
            <mxPoint x="760" y="800" as="sourcePoint" />
            <mxPoint x="790" y="800" as="targetPoint" />
          </mxGeometry>
        </mxCell>
        <mxCell id="yWywlQkEj96IS5xHu7GC-40" value="" style="endArrow=none;html=1;strokeWidth=2;fillColor=#d5e8d4;strokeColor=#82b366;curved=1;" edge="1" parent="1">
          <mxGeometry width="50" height="50" relative="1" as="geometry">
            <mxPoint x="920" y="600" as="sourcePoint" />
            <mxPoint x="790" y="800" as="targetPoint" />
            <Array as="points">
              <mxPoint x="890" y="600" />
              <mxPoint x="840" y="630" />
              <mxPoint x="790" y="710" />
            </Array>
          </mxGeometry>
        </mxCell>
        <mxCell id="yWywlQkEj96IS5xHu7GC-42" value="" style="endArrow=none;html=1;strokeWidth=2;fillColor=#dae8fc;strokeColor=#6c8ebf;curved=1;dashed=1;" edge="1" parent="1">
          <mxGeometry width="50" height="50" relative="1" as="geometry">
            <mxPoint x="920" y="600" as="sourcePoint" />
            <mxPoint x="790" y="800" as="targetPoint" />
            <Array as="points">
              <mxPoint x="890" y="600" />
              <mxPoint x="840" y="630" />
              <mxPoint x="790" y="710" />
            </Array>
          </mxGeometry>
        </mxCell>
        <mxCell id="yWywlQkEj96IS5xHu7GC-43" value="" style="endArrow=none;html=1;rounded=0;strokeWidth=2;fillColor=#dae8fc;strokeColor=#6c8ebf;dashed=1;" edge="1" parent="1">
          <mxGeometry width="50" height="50" relative="1" as="geometry">
            <mxPoint x="760" y="800" as="sourcePoint" />
            <mxPoint x="790" y="800" as="targetPoint" />
          </mxGeometry>
        </mxCell>
        <mxCell id="yWywlQkEj96IS5xHu7GC-44" value="" style="endArrow=none;html=1;strokeWidth=2;fillColor=#dae8fc;strokeColor=#6c8ebf;curved=1;dashed=1;" edge="1" parent="1">
          <mxGeometry width="50" height="50" relative="1" as="geometry">
            <mxPoint x="920" y="600" as="sourcePoint" />
            <mxPoint x="790" y="800" as="targetPoint" />
            <Array as="points">
              <mxPoint x="890" y="600" />
              <mxPoint x="840" y="630" />
              <mxPoint x="790" y="710" />
            </Array>
          </mxGeometry>
        </mxCell>
        <mxCell id="yWywlQkEj96IS5xHu7GC-45" value="" style="endArrow=none;html=1;rounded=0;fillColor=#d5e8d4;strokeColor=#82b366;strokeWidth=2;" edge="1" parent="1">
          <mxGeometry width="50" height="50" relative="1" as="geometry">
            <mxPoint x="920" y="600" as="sourcePoint" />
            <mxPoint x="1080" y="600" as="targetPoint" />
          </mxGeometry>
        </mxCell>
        <mxCell id="yWywlQkEj96IS5xHu7GC-46" value="" style="endArrow=none;html=1;rounded=0;fillColor=#d5e8d4;strokeColor=#82b366;strokeWidth=2;" edge="1" parent="1">
          <mxGeometry width="50" height="50" relative="1" as="geometry">
            <mxPoint x="920" y="600" as="sourcePoint" />
            <mxPoint x="1080" y="600" as="targetPoint" />
          </mxGeometry>
        </mxCell>
        <mxCell id="yWywlQkEj96IS5xHu7GC-47" value="" style="endArrow=none;html=1;rounded=0;fillColor=#dae8fc;strokeColor=#6c8ebf;strokeWidth=2;dashed=1;" edge="1" parent="1">
          <mxGeometry width="50" height="50" relative="1" as="geometry">
            <mxPoint x="920" y="600" as="sourcePoint" />
            <mxPoint x="1080" y="600" as="targetPoint" />
          </mxGeometry>
        </mxCell>
        <mxCell id="yWywlQkEj96IS5xHu7GC-58" style="rounded=0;orthogonalLoop=1;jettySize=auto;html=1;exitX=1;exitY=1;exitDx=0;exitDy=0;entryX=0;entryY=0;entryDx=0;entryDy=0;" edge="1" source="yWywlQkEj96IS5xHu7GC-60" target="yWywlQkEj96IS5xHu7GC-64" parent="1">
          <mxGeometry relative="1" as="geometry" />
        </mxCell>
        <mxCell id="yWywlQkEj96IS5xHu7GC-59" style="rounded=0;orthogonalLoop=1;jettySize=auto;html=1;exitX=0;exitY=1;exitDx=0;exitDy=0;entryX=1;entryY=0;entryDx=0;entryDy=0;" edge="1" source="yWywlQkEj96IS5xHu7GC-60" target="yWywlQkEj96IS5xHu7GC-62" parent="1">
          <mxGeometry relative="1" as="geometry" />
        </mxCell>
        <mxCell id="yWywlQkEj96IS5xHu7GC-60" value="" style="ellipse;whiteSpace=wrap;html=1;aspect=fixed;fillColor=none;" vertex="1" parent="1">
          <mxGeometry x="1360" y="80" width="80" height="80" as="geometry" />
        </mxCell>
        <mxCell id="yWywlQkEj96IS5xHu7GC-62" value="" style="ellipse;whiteSpace=wrap;html=1;aspect=fixed;fillColor=none;" vertex="1" parent="1">
          <mxGeometry x="1240" y="240" width="80" height="80" as="geometry" />
        </mxCell>
        <mxCell id="yWywlQkEj96IS5xHu7GC-64" value="" style="ellipse;whiteSpace=wrap;html=1;aspect=fixed;fillColor=none;" vertex="1" parent="1">
          <mxGeometry x="1480" y="240" width="80" height="80" as="geometry" />
        </mxCell>
        <mxCell id="yWywlQkEj96IS5xHu7GC-65" value="&lt;font style=&quot;font-size: 24px;&quot;&gt;X&lt;/font&gt;" style="text;html=1;strokeColor=none;fillColor=none;align=center;verticalAlign=middle;whiteSpace=wrap;rounded=0;" vertex="1" parent="1">
          <mxGeometry x="1370" y="105" width="60" height="30" as="geometry" />
        </mxCell>
        <mxCell id="yWywlQkEj96IS5xHu7GC-66" value="&lt;font style=&quot;font-size: 24px;&quot;&gt;Y&lt;sub&gt;1&lt;/sub&gt;&lt;/font&gt;" style="text;html=1;strokeColor=none;fillColor=none;align=center;verticalAlign=middle;whiteSpace=wrap;rounded=0;" vertex="1" parent="1">
          <mxGeometry x="1250" y="265" width="60" height="30" as="geometry" />
        </mxCell>
        <mxCell id="yWywlQkEj96IS5xHu7GC-67" value="&lt;font style=&quot;font-size: 24px;&quot;&gt;Y&lt;sub&gt;2&lt;/sub&gt;&lt;/font&gt;" style="text;html=1;strokeColor=none;fillColor=none;align=center;verticalAlign=middle;whiteSpace=wrap;rounded=0;" vertex="1" parent="1">
          <mxGeometry x="1490" y="265" width="60" height="30" as="geometry" />
        </mxCell>
        <mxCell id="yWywlQkEj96IS5xHu7GC-78" value="" style="shape=crossbar;whiteSpace=wrap;html=1;rounded=1;" vertex="1" parent="1">
          <mxGeometry x="1325" y="270" width="150" height="20" as="geometry" />
        </mxCell>
      </root>
    </mxGraphModel>
  </diagram>
</mxfile>
